<svg xmlns="http://www.w3.org/2000/svg" viewBox="0 0 574.37 846.48"><defs><style>.cls-1{fill:#37d3d3;}.cls-2{fill:#a3a3a3;}.cls-3{fill:#5edda3;}.cls-4{fill:#6d2c3a;}.cls-5{fill:#f45872;}.cls-6{fill:#59360d;}.cls-7{fill:#686253;}.cls-8{fill:#ffdbbd;}.cls-9{fill:#eac3a7;}.cls-10{fill:#fff;}.cls-11{fill:#42966e;}.cls-12{fill:#ad4058;}</style></defs><title>Asset 1</title><g id="Layer_2" data-name="Layer 2"><g id="Layer_3" data-name="Layer 3"><path class="cls-1" d="M457.63,236.68c1,12,29,296,52,317,0,0,7,5,12-33,0,0,4-7,4,18s16-125,11-149c0,0,4,19,7,6s3-159,3-159-2-94,18-137,3-76,3-76-14-9-26-8-20-13-20-13-26-9-34,6-13,32-19,33-17,21-16,36S457.63,236.68,457.63,236.68Z"/><ellipse class="cls-2" cx="163.24" cy="830.25" rx="163.24" ry="16.23"/></g><g id="Layer_2-2" data-name="Layer 2"><path class="cls-3" d="M124.22,595.88h0c19,.1,61.79-1.26,88.41-14.19,27.8-13.5,72-20.07,89-22.2h0s-10,37.19-21,55.19-39,105-39,105c-.9,0-5.91.18-12.5.43-10.63.4-25.37,1-33.5,1.32l-6,.25,15-88-19,85c-.18.35-2.91.89-7.3,1.53-10.29,1.52-29.68,3.63-46.51,5.37s-31.19,3.1-31.19,3.1Z"/><path class="cls-4" d="M366.68,309.89l18.95-23.21c10,58-10,51-10,51S371.44,325.1,366.68,309.89Z"/><path class="cls-5" d="M123.63,503.68l-6.49,1.3-28.82,5.76-14.69,2.94,33.65-107.36v-.11c57.51-2.19,119.35-37.53,119.35-37.53s17-8,21-10c2.31-1.16,36.41-26.4,55.07-64.12l50.51-43.13,1.45,1.39c-1.31,1.52-1.93,4.49-1,9.86,1.59,9.54,7.68,30.05,13.05,47.21,4.76,15.21,8.95,27.79,8.95,27.79-82,46-67,221-67,221s-2.58.25-7,.8c-17,2.13-61.21,8.7-89,22.2C186,594.61,143.19,596,124.22,595.87c-6,0-9.59-.19-9.59-.19S118.63,520.68,123.63,503.68Z"/><path class="cls-6" d="M472.63,179.68l-2.93,4.39-4.95,7.43c-.12-.05-.12.18-.12.18s-14,6-18-3a26.06,26.06,0,0,1-1.7-4.62l1.7-.38,11-21S463.63,182.68,472.63,179.68Z"/><path class="cls-7" d="M523.63,128.68c5,7,4,26,4,26s-6-4-24,12-33.93,17.39-33.93,17.39l2.93-4.39c-9,3-15-17-15-17,11-30,39-55,39-55a3.55,3.55,0,0,0,2,3C500.63,111.68,518.63,121.68,523.63,128.68Z"/><path class="cls-8" d="M385.63,286.68l-18.95,23.21c-5.37-17.16-11.46-37.67-13.05-47.21l11-9c33-28,41-30,41-30s17.44-17.44,21.8-22.76l2.9.76c-3.82,7.75,2.3,20,2.3,20a47.82,47.82,0,0,1,6.75,5h-4.75Z"/><path class="cls-8" d="M430.33,201.68l-2.9-.76.2-.24s0-14,3-14c2.33,0,10.68-1.81,14.3-2.62a26.06,26.06,0,0,0,1.7,4.62c4,9,18,3,18,3l.12-.18c.22.09.9,1.24,2.88,7.18,3,9-3,22-6,33s-19,4-19,0c0-1.52-1.45-3.34-3.25-5a47.82,47.82,0,0,0-6.75-5S426.51,209.43,430.33,201.68Z"/><path class="cls-8" d="M300.63,196.68c21.08,36.26,15.68,70.38,2.07,97.88-18.66,37.72-52.76,63-55.07,64.12-4,2-21,10-21,10S164.79,404,107.28,406.21c-39.24,1.5-76.46-12.43-90.65-63.53-35-126,105-179,105-179S250.63,110.68,300.63,196.68Z"/><path class="cls-8" d="M190.09,787.34l5.54-65.9h0c8.13-.32,22.87-.92,33.5-1.32l-20.5,81.57s17,7,27,13,33,17,33,17c-18,9-63-3-63-3s-30-1-36-2S190.09,787.34,190.09,787.34Z"/><path class="cls-8" d="M178.33,720.21l-22.7,84.47c4,8,3,21,3,21s-94,3-82-3,57-26,57-26l-1.81-71.1C148.65,723.84,168,721.73,178.33,720.21Z"/><path class="cls-8" d="M117.14,505l-24.51,66.7c14,26-2,39-2,39l5,3s4,5-7,8-15-4-15-4c-12-15-4-41-4-41l18.69-65.94Z"/></g><g id="Layer_6" data-name="Layer 6"><path class="cls-9" d="M29.55,300.66s21.05-7.06,29.52-14,27.36-21.29,22.15-33-15.17-42.34-7.59-47.55,96-10.43,96-10.43-17.43-24.3-6.77-33S220,148.93,220,148.93L182.22,139l-57.45,20.85L73.63,184.07l-28.9,42.61L11,298Z"/></g><g id="Layer_4" data-name="Layer 4"><path d="M225.63,149.68c-.31-.05-15.16-2-15.48-2a132.92,132.92,0,0,0-41.52,8c-19.39,7.38-.81,34.82,0,36-.75,0-7.37.35-57,6-61,7-41,44-38,59s-22,23-32,43,17,56,17,56,71,6,104-20,33-37,80-53c0,0,11-19,27-29s28-36,28-36l4-19s56,76-50,158S32.14,415.73,16.89,351.2v0a54.89,54.89,0,0,0,10.75-1.5c6-8-4-30-4-30A32.23,32.23,0,0,0,9.88,329.87c-4.75-4.82-7.25-36.19-9.25-53.19s21-55,34-62,25-37,32-40,49-19,55-24,33-18,44-19,48-1,69,5,36,28,36,28l-10-5c-.54-.16-17.44-6.93-18-7Zm59,147s1-50-5-39-19,26-19,26-30,31-54,36-10,16-10,16c30,16,46,9,66,0S284.63,296.68,284.63,296.68Z"/><path class="cls-8" d="M276.62,276.71c-32,56-75,51-75,51,19,21,51,12,59,0C268.51,315.87,276.38,277.89,276.62,276.71Zm3-19c6-11,5,39,5,39s-2,30-22,39-36,16-66,0c0,0-14-11,10-16s54-36,54-36S273.63,268.68,279.63,257.68Z"/><path class="cls-10" d="M276.62,276.71c-.24,1.18-8.11,39.16-16,51-8,12-40,21-59,0C201.63,327.68,244.61,332.68,276.62,276.71Z"/><path d="M246,206.52c3.09,8.92,2.19,17.34-2,18.79s-10.11-4.61-13.2-13.54-2.18-17.34,2-18.79S243,197.59,246,206.52Z"/><path d="M168.6,191.64c.17,0,0,0,0,0Z"/><path d="M168.14,268.74c3.24,9.39,2.07,18.33-2.63,19.95s-11.14-4.67-14.39-14.07-2.07-18.33,2.63-20S164.89,259.34,168.14,268.74Z"/><path class="cls-8" d="M23.63,319.68s10,22,4,30a54.89,54.89,0,0,1-10.75,1.5l-7-21.31A32.23,32.23,0,0,1,23.63,319.68Z"/><path class="cls-8" d="M9.88,329.87l7,21.31c-7,.21-14.49-1.54-12.25-10.5A28.8,28.8,0,0,1,9.88,329.87Z"/></g><g id="Layer_5" data-name="Layer 5"><path class="cls-9" d="M239.63,276.68c16-13,0-27,0-27s4,15,2,21Z"/><path d="M169.63,228.68c-3.7-.3-7.14.93-10.39,2.32a62.09,62.09,0,0,0-9.29,5.3c-.77.46-1.46,1-2.2,1.56s-1.48,1-2.19,1.58c-1.41,1.14-2.88,2.2-4.3,3.34-.71.58-1.4,1.17-2.13,1.73s-1.46,1.11-2.14,1.72c-1.42,1.17-2.83,2.35-4.36,3.45,1-1.55,2.18-3,3.32-4.49s2.46-2.79,3.74-4.15c.62-.7,1.32-1.31,2-1.95l2.08-1.87c1.46-1.18,2.94-2.34,4.49-3.4a37.94,37.94,0,0,1,10.17-5l1.36-.41c.47-.1.94-.2,1.41-.28a22.65,22.65,0,0,1,2.85-.36A11.82,11.82,0,0,1,169.63,228.68Z"/><path d="M215.63,191.68a17,17,0,0,1,4.84-6.51,23.53,23.53,0,0,1,7.11-4.16,25.16,25.16,0,0,1,4-1.07c.68-.11,1.35-.26,2-.32s1.36-.08,2-.1a11.59,11.59,0,0,1,2,0l2,.19a28.8,28.8,0,0,1,3.93.93c-1.34.27-2.64.35-3.93.54l-1.92.31-.95.13-.94.2c-.63.13-1.25.26-1.87.37l-1.83.48-.91.23c-.3.09-.59.2-.89.3-.59.2-1.19.36-1.78.58a40.65,40.65,0,0,0-6.75,3.25A38.81,38.81,0,0,0,215.63,191.68Z"/><path class="cls-9" d="M18.66,329.27a13.55,13.55,0,0,1,1.6,4.6,16.15,16.15,0,0,1,.17,3.72,6.66,6.66,0,0,1-.16,1.29s-.05.15-.08.13l-.06,0s-.06-.06-.1-.07-.21-.18-.38-.23a1.6,1.6,0,0,0-.65-.21c-.5,0-.58.21-.49.36a1.27,1.27,0,0,0,.71.32c.33.11.71.11,1.13.2s.86.09,1.38.19a5.2,5.2,0,0,1-.93,2.67,3.7,3.7,0,0,1-1.21,1.09,3.51,3.51,0,0,1-.48.22,1.62,1.62,0,0,1-.57.15,5.05,5.05,0,0,1-.68.07,3.26,3.26,0,0,1-.79-.11,4.06,4.06,0,0,1-1.52-.74,5,5,0,0,1-1-1.08c-.11-.17-.25-.37-.33-.53s-.15-.31-.22-.48a6.69,6.69,0,0,1-.31-.88,8.34,8.34,0,0,1-.26-2.84,9.44,9.44,0,0,1,1.46-4.46A9.14,9.14,0,0,1,18.66,329.27Z"/><polygon class="cls-9" points="131.63 725.68 132.63 752.68 170.63 749.68 178.34 720.21 131.63 725.68"/><polygon class="cls-9" points="195.63 721.43 193.44 747.55 222.24 747.55 229.13 720.11 195.63 721.43"/><path class="cls-11" d="M124.23,595.88l-5.64,31.74s76.66.08,88.39-12.3,83.48-21.63,83.48-21.63,10.07-28.14,11.18-34.21c0,0-62.82,9.17-74.51,16.21S124.23,595.88,124.23,595.88Z"/><path class="cls-12" d="M106.36,409.26S231.61,417,307.47,290.48c0,0-7.4,101.44-77.84,115.84S106.36,409.26,106.36,409.26Z"/></g></g></svg>